<svg xmlns="http://www.w3.org/2000/svg" width="60" height="60" viewBox="0 0 60 60">
  <g id="메인_페이지" data-name="메인 페이지" transform="translate(907 -3290)">
    <g id="그룹_104" data-name="그룹 104" transform="translate(-67 -25)">
      <path id="home" d="M29,12.739l0,0L17.049.79a2.7,2.7,0,0,0-3.813,0L1.295,12.731l-.012.012a2.7,2.7,0,0,0,1.794,4.594c.028,0,.055,0,.083,0h.476v8.792a3.159,3.159,0,0,0,3.156,3.156h4.674a.858.858,0,0,0,.858-.858V21.537a1.441,1.441,0,0,1,1.44-1.44h2.757a1.441,1.441,0,0,1,1.44,1.44V28.43a.858.858,0,0,0,.858.858h4.674a3.159,3.159,0,0,0,3.156-3.156V17.341h.442A2.7,2.7,0,0,0,29,12.739Zm-1.215,2.6a.974.974,0,0,1-.693.287h-1.3a.858.858,0,0,0-.858.858v9.65a1.441,1.441,0,0,1-1.44,1.439H19.677V21.537a3.159,3.159,0,0,0-3.156-3.156H13.764a3.16,3.16,0,0,0-3.156,3.156v6.035H6.792a1.441,1.441,0,0,1-1.44-1.439v-9.65a.858.858,0,0,0-.858-.858H3.217l-.04,0A.979.979,0,0,1,2.5,13.951h0L14.449,2a.98.98,0,0,1,1.386,0L27.779,13.947l.006.005A.982.982,0,0,1,27.783,15.337Zm0,0" transform="translate(-824.734 3320.457)" fill="#707070"/>
      <text id="Home-2" data-name="Home" transform="translate(-823 3365)" fill="#707070" font-size="10" font-family="Roboto-Bold, Roboto" font-weight="700"><tspan x="0" y="0">Home</tspan></text>
    </g>
    <rect id="사각형_79" data-name="사각형 79" width="60" height="60" transform="translate(-907 3290)" fill="none"/>
  </g>
</svg>
