<svg xmlns="http://www.w3.org/2000/svg" width="60" height="60" viewBox="0 0 60 60">
  <g id="북마크" transform="translate(674 -3299)">
    <g id="그룹_105" data-name="그룹 105" transform="translate(127 -16)">
      <g id="bookmark" transform="translate(-813 3322)">
        <path id="패스_108" data-name="패스 108" d="M50.814,0H33.654A3.658,3.658,0,0,0,30,3.654V27.716l9.392-4.7,9.392,4.7V14.67h5.684V3.654A3.658,3.658,0,0,0,50.814,0ZM47.16,3.654V25.089L39.392,21.2l-7.768,3.884V3.654a2.032,2.032,0,0,1,2.03-2.03H47.777A3.633,3.633,0,0,0,47.16,3.654Zm5.684,9.392h-4.06V3.654a2.03,2.03,0,0,1,4.06,0Z" fill="#707070"/>
      </g>
      <text id="Saved" transform="translate(-785 3365)" fill="#707070" font-size="10" font-family="Roboto-Bold, Roboto" font-weight="700"><tspan x="0" y="0">Saved</tspan></text>
    </g>
    <rect id="사각형_82" data-name="사각형 82" width="60" height="60" transform="translate(-674 3299)" fill="none"/>
  </g>
</svg>
